<?xml version="1.0" encoding="UTF-8"?>
<svg version="1.1" xmlns="http://www.w3.org/2000/svg" width="100" height="100">
<path d="M0 0 C0.71095825 -0.0065712 1.4219165 -0.0131424 2.15441895 -0.01991272 C4.50691844 -0.03961985 6.85935413 -0.0513033 9.21191406 -0.0612793 C10.0168354 -0.06535482 10.82175674 -0.06943035 11.65106964 -0.07362938 C15.91255943 -0.0944804 20.17401713 -0.10878556 24.43554688 -0.11816406 C28.82821039 -0.12921874 33.22036599 -0.16361017 37.61285019 -0.20333576 C40.99815791 -0.22953363 44.38334526 -0.23785875 47.76874542 -0.24144554 C49.38740718 -0.24630434 51.00606381 -0.25789821 52.62462616 -0.27648354 C54.89598846 -0.30094088 57.16604521 -0.29989858 59.4375 -0.29296875 C60.72750916 -0.29883499 62.01751831 -0.30470123 63.34661865 -0.31074524 C68.76449401 0.41704639 73.43541562 2.82080785 76.85253906 7.23950195 C80.06778205 11.68410255 80.11342989 14.82545033 80.15454102 20.19946289 C80.16111221 20.91042114 80.16768341 21.62137939 80.17445374 22.35388184 C80.19416087 24.70638133 80.20584432 27.05881702 80.21582031 29.41137695 C80.21989584 30.21629829 80.22397137 31.02121964 80.22817039 31.85053253 C80.24902141 36.11202232 80.26332657 40.37348002 80.27270508 44.63500977 C80.28375976 49.02767328 80.31815118 53.41982888 80.35787678 57.81231308 C80.38407465 61.1976208 80.39239977 64.58280815 80.39598656 67.96820831 C80.40084536 69.58687007 80.41243923 71.2055267 80.43102455 72.82408905 C80.45548189 75.09545135 80.4544396 77.3655081 80.44750977 79.63696289 C80.45337601 80.92697205 80.45924225 82.2169812 80.46528625 83.54608154 C79.73749462 88.9639569 77.33373317 93.63487851 72.91503906 97.05200195 C68.47043847 100.26724494 65.32909068 100.31289278 59.95507812 100.35400391 C58.88864075 100.3638607 58.88864075 100.3638607 57.80065918 100.37391663 C55.44815969 100.39362376 53.095724 100.40530721 50.74316406 100.4152832 C49.93824272 100.41935873 49.13332138 100.42343426 48.30400848 100.42763329 C44.04251869 100.4484843 39.781061 100.46278946 35.51953125 100.47216797 C31.12686773 100.48322265 26.73471214 100.51761407 22.34222794 100.55733967 C18.95692021 100.58353754 15.57173287 100.59186266 12.1863327 100.59544945 C10.56767095 100.60030825 8.94901431 100.61190212 7.33045197 100.63048744 C5.05908967 100.65494478 2.78903292 100.65390249 0.51757812 100.64697266 C-0.77243103 100.6528389 -2.06244019 100.65870514 -3.39154053 100.66474915 C-8.80941589 99.93695751 -13.4803375 97.53319606 -16.89746094 93.11450195 C-20.11270392 88.66990136 -20.15835177 85.52855357 -20.19946289 80.15454102 C-20.20603409 79.44358276 -20.21260529 78.73262451 -20.21937561 78.00012207 C-20.23908274 75.64762258 -20.25076619 73.29518689 -20.26074219 70.94262695 C-20.26481771 70.13770561 -20.26889324 69.33278427 -20.27309227 68.50347137 C-20.29394329 64.24198158 -20.30824845 59.98052389 -20.31762695 55.71899414 C-20.32868163 51.32633062 -20.36307306 46.93417503 -20.40279865 42.54169083 C-20.42899652 39.15638311 -20.43732164 35.77119576 -20.44090843 32.38579559 C-20.44576723 30.76713384 -20.4573611 29.1484772 -20.47594643 27.52991486 C-20.50040377 25.25855256 -20.49936147 22.98849581 -20.49243164 20.71704102 C-20.49829788 19.42703186 -20.50416412 18.13702271 -20.51020813 16.80792236 C-19.7824165 11.390047 -17.37865504 6.7191254 -12.95996094 3.30200195 C-8.51536034 0.08675897 -5.37401256 0.04111112 0 0 Z M-11.02246094 13.17700195 C-12.45646807 16.04501622 -12.18156847 18.52901069 -12.21533203 21.73461914 C-12.22350952 22.40802338 -12.23168701 23.08142761 -12.2401123 23.77523804 C-12.26496253 26.00810864 -12.28148296 28.24091559 -12.29589844 30.47387695 C-12.30122211 31.23683327 -12.30654579 31.99978958 -12.31203079 32.78586578 C-12.33876329 36.8257395 -12.3581361 40.86558233 -12.37255859 44.90551758 C-12.38918926 49.07312206 -12.43395229 53.23993309 -12.48493004 57.40723801 C-12.51863407 60.61579262 -12.53013948 63.82415983 -12.53578568 67.03287506 C-12.54249163 68.56865743 -12.55769688 70.10442775 -12.58167648 71.64003754 C-12.61339654 73.79461174 -12.61335607 75.94705902 -12.60595703 78.10180664 C-12.61404388 79.32599304 -12.62213074 80.55017944 -12.63046265 81.8114624 C-11.81782368 86.30975335 -10.2118434 87.9484765 -7.02246094 91.17700195 C-4.15444667 92.61100909 -1.6704522 92.33610948 1.53515625 92.36987305 C2.20856049 92.37805054 2.88196472 92.38622803 3.57577515 92.39465332 C5.80864575 92.41950355 8.0414527 92.43602398 10.27441406 92.45043945 C11.03737038 92.45576313 11.80032669 92.46108681 12.58640289 92.46657181 C16.62627661 92.4933043 20.66611943 92.51267712 24.70605469 92.52709961 C28.87365917 92.54373028 33.0404702 92.58849331 37.20777512 92.63947105 C40.41632973 92.67317508 43.62469694 92.68468049 46.83341217 92.69032669 C48.36919454 92.69703264 49.90496486 92.7122379 51.44057465 92.7362175 C53.59514885 92.76793755 55.74759613 92.76789709 57.90234375 92.76049805 C59.12653015 92.7685849 60.35071655 92.77667175 61.61199951 92.78500366 C66.11029046 91.97236469 67.74901361 90.36638442 70.97753906 87.17700195 C72.4115462 84.30898768 72.13664659 81.82499321 72.17041016 78.61938477 C72.17858765 77.94598053 72.18676514 77.27257629 72.19519043 76.57876587 C72.22004066 74.34589527 72.23656109 72.11308831 72.25097656 69.88012695 C72.25896208 68.73569248 72.25896208 68.73569248 72.26710892 67.56813812 C72.29384141 63.52826441 72.31321423 59.48842158 72.32763672 55.44848633 C72.34426739 51.28088185 72.38903042 47.11407082 72.44000816 42.9467659 C72.47371219 39.73821128 72.4852176 36.52984407 72.4908638 33.32112885 C72.49756975 31.78534648 72.51277501 30.24957616 72.53675461 28.71396637 C72.56847466 26.55939217 72.5684342 24.40694488 72.56103516 22.25219727 C72.56912201 21.02801086 72.57720886 19.80382446 72.58554077 18.5425415 C71.7729018 14.04425055 70.16692153 12.4055274 66.97753906 9.17700195 C64.10952479 7.74299482 61.62553032 8.01789442 58.41992188 7.98413086 C57.74651764 7.97595337 57.0731134 7.96777588 56.37930298 7.95935059 C54.14643238 7.93450036 51.91362542 7.91797993 49.68066406 7.90356445 C48.91770775 7.89824078 48.15475143 7.8929171 47.36867523 7.8874321 C43.32880152 7.8606996 39.28895869 7.84132679 35.24902344 7.8269043 C31.08141896 7.81027363 26.91460793 7.7655106 22.74730301 7.71453285 C19.53874839 7.68082883 16.33038118 7.66932341 13.12166595 7.66367722 C11.58588359 7.65697126 10.05011327 7.64176601 8.51450348 7.61778641 C6.35992928 7.58606635 4.20748199 7.58610682 2.05273438 7.59350586 C0.82854797 7.58541901 -0.39563843 7.57733215 -1.65692139 7.56900024 C-6.15521234 8.38163921 -7.79393549 9.98761949 -11.02246094 13.17700195 Z " fill="#FFFFFF" transform="translate(20.0224609375,-0.177001953125)"/>
<path d="M0 0 C4.55555556 0.55555556 4.55555556 0.55555556 6 2 C6.07319621 4.69654854 6.09242537 7.36691458 6.0625 10.0625 C6.05798828 10.82111328 6.05347656 11.57972656 6.04882812 12.36132812 C6.0370068 14.24091871 6.01907078 16.12046899 6 18 C7.13179687 17.97679688 8.26359375 17.95359375 9.4296875 17.9296875 C10.91145175 17.91093099 12.39322312 17.89273066 13.875 17.875 C14.62136719 17.85824219 15.36773437 17.84148438 16.13671875 17.82421875 C18.09194461 17.8066041 20.04742021 17.89679811 22 18 C22.66 18.66 23.32 19.32 24 20 C23.44444444 24.55555556 23.44444444 24.55555556 22 26 C19.30345146 26.07319621 16.63308542 26.09242537 13.9375 26.0625 C13.17888672 26.05798828 12.42027344 26.05347656 11.63867188 26.04882812 C9.75908129 26.0370068 7.87953101 26.01907078 6 26 C6.02320312 27.13179687 6.04640625 28.26359375 6.0703125 29.4296875 C6.08906901 30.91145175 6.10726934 32.39322312 6.125 33.875 C6.14175781 34.62136719 6.15851562 35.36773437 6.17578125 36.13671875 C6.1933959 38.09194461 6.10320189 40.04742021 6 42 C5.34 42.66 4.68 43.32 4 44 C-0.55555556 43.44444444 -0.55555556 43.44444444 -2 42 C-2.07319621 39.30345146 -2.09242537 36.63308542 -2.0625 33.9375 C-2.05798828 33.17888672 -2.05347656 32.42027344 -2.04882812 31.63867188 C-2.0370068 29.75908129 -2.01907078 27.87953101 -2 26 C-3.13179687 26.02320312 -4.26359375 26.04640625 -5.4296875 26.0703125 C-6.91145175 26.08906901 -8.39322312 26.10726934 -9.875 26.125 C-10.62136719 26.14175781 -11.36773437 26.15851562 -12.13671875 26.17578125 C-14.09194461 26.1933959 -16.04742021 26.10320189 -18 26 C-18.66 25.34 -19.32 24.68 -20 24 C-19.44444444 19.44444444 -19.44444444 19.44444444 -18 18 C-15.30345146 17.92680379 -12.63308542 17.90757463 -9.9375 17.9375 C-9.17888672 17.94201172 -8.42027344 17.94652344 -7.63867188 17.95117188 C-5.75908129 17.9629932 -3.87953101 17.98092922 -2 18 C-2.02320312 16.86820313 -2.04640625 15.73640625 -2.0703125 14.5703125 C-2.08906901 13.08854825 -2.10726934 11.60677688 -2.125 10.125 C-2.14175781 9.37863281 -2.15851562 8.63226563 -2.17578125 7.86328125 C-2.1933959 5.90805539 -2.10320189 3.95257979 -2 2 C-1.34 1.34 -0.68 0.68 0 0 Z " fill="#FFFFFF" transform="translate(48,28)"/>
</svg>
