<?xml version="1.0" encoding="UTF-8"?>
<svg version="1.1" xmlns="http://www.w3.org/2000/svg" width="100" height="100">
<path d="M0 0 C0.71095825 -0.0065712 1.4219165 -0.0131424 2.15441895 -0.01991272 C4.50691844 -0.03961985 6.85935413 -0.0513033 9.21191406 -0.0612793 C10.0168354 -0.06535482 10.82175674 -0.06943035 11.65106964 -0.07362938 C15.91255943 -0.0944804 20.17401713 -0.10878556 24.43554688 -0.11816406 C28.82821039 -0.12921874 33.22036599 -0.16361017 37.61285019 -0.20333576 C40.99815791 -0.22953363 44.38334526 -0.23785875 47.76874542 -0.24144554 C49.38740718 -0.24630434 51.00606381 -0.25789821 52.62462616 -0.27648354 C54.89598846 -0.30094088 57.16604521 -0.29989858 59.4375 -0.29296875 C60.72750916 -0.29883499 62.01751831 -0.30470123 63.34661865 -0.31074524 C68.76449401 0.41704639 73.43541562 2.82080785 76.85253906 7.23950195 C80.06778205 11.68410255 80.11342989 14.82545033 80.15454102 20.19946289 C80.16111221 20.91042114 80.16768341 21.62137939 80.17445374 22.35388184 C80.19416087 24.70638133 80.20584432 27.05881702 80.21582031 29.41137695 C80.21989584 30.21629829 80.22397137 31.02121964 80.22817039 31.85053253 C80.24902141 36.11202232 80.26332657 40.37348002 80.27270508 44.63500977 C80.28375976 49.02767328 80.31815118 53.41982888 80.35787678 57.81231308 C80.38407465 61.1976208 80.39239977 64.58280815 80.39598656 67.96820831 C80.40084536 69.58687007 80.41243923 71.2055267 80.43102455 72.82408905 C80.45548189 75.09545135 80.4544396 77.3655081 80.44750977 79.63696289 C80.45337601 80.92697205 80.45924225 82.2169812 80.46528625 83.54608154 C79.73749462 88.9639569 77.33373317 93.63487851 72.91503906 97.05200195 C68.47043847 100.26724494 65.32909068 100.31289278 59.95507812 100.35400391 C58.88864075 100.3638607 58.88864075 100.3638607 57.80065918 100.37391663 C55.44815969 100.39362376 53.095724 100.40530721 50.74316406 100.4152832 C49.93824272 100.41935873 49.13332138 100.42343426 48.30400848 100.42763329 C44.04251869 100.4484843 39.781061 100.46278946 35.51953125 100.47216797 C31.12686773 100.48322265 26.73471214 100.51761407 22.34222794 100.55733967 C18.95692021 100.58353754 15.57173287 100.59186266 12.1863327 100.59544945 C10.56767095 100.60030825 8.94901431 100.61190212 7.33045197 100.63048744 C5.05908967 100.65494478 2.78903292 100.65390249 0.51757812 100.64697266 C-0.77243103 100.6528389 -2.06244019 100.65870514 -3.39154053 100.66474915 C-8.80941589 99.93695751 -13.4803375 97.53319606 -16.89746094 93.11450195 C-20.11270392 88.66990136 -20.15835177 85.52855357 -20.19946289 80.15454102 C-20.20603409 79.44358276 -20.21260529 78.73262451 -20.21937561 78.00012207 C-20.23908274 75.64762258 -20.25076619 73.29518689 -20.26074219 70.94262695 C-20.26481771 70.13770561 -20.26889324 69.33278427 -20.27309227 68.50347137 C-20.29394329 64.24198158 -20.30824845 59.98052389 -20.31762695 55.71899414 C-20.32868163 51.32633062 -20.36307306 46.93417503 -20.40279865 42.54169083 C-20.42899652 39.15638311 -20.43732164 35.77119576 -20.44090843 32.38579559 C-20.44576723 30.76713384 -20.4573611 29.1484772 -20.47594643 27.52991486 C-20.50040377 25.25855256 -20.49936147 22.98849581 -20.49243164 20.71704102 C-20.49829788 19.42703186 -20.50416412 18.13702271 -20.51020813 16.80792236 C-19.7824165 11.390047 -17.37865504 6.7191254 -12.95996094 3.30200195 C-8.51536034 0.08675897 -5.37401256 0.04111112 0 0 Z M-11.02246094 13.17700195 C-12.45646807 16.04501622 -12.18156847 18.52901069 -12.21533203 21.73461914 C-12.22350952 22.40802338 -12.23168701 23.08142761 -12.2401123 23.77523804 C-12.26496253 26.00810864 -12.28148296 28.24091559 -12.29589844 30.47387695 C-12.30122211 31.23683327 -12.30654579 31.99978958 -12.31203079 32.78586578 C-12.33876329 36.8257395 -12.3581361 40.86558233 -12.37255859 44.90551758 C-12.38918926 49.07312206 -12.43395229 53.23993309 -12.48493004 57.40723801 C-12.51863407 60.61579262 -12.53013948 63.82415983 -12.53578568 67.03287506 C-12.54249163 68.56865743 -12.55769688 70.10442775 -12.58167648 71.64003754 C-12.61339654 73.79461174 -12.61335607 75.94705902 -12.60595703 78.10180664 C-12.61404388 79.32599304 -12.62213074 80.55017944 -12.63046265 81.8114624 C-11.81782368 86.30975335 -10.2118434 87.9484765 -7.02246094 91.17700195 C-4.15444667 92.61100909 -1.6704522 92.33610948 1.53515625 92.36987305 C2.20856049 92.37805054 2.88196472 92.38622803 3.57577515 92.39465332 C5.80864575 92.41950355 8.0414527 92.43602398 10.27441406 92.45043945 C11.03737038 92.45576313 11.80032669 92.46108681 12.58640289 92.46657181 C16.62627661 92.4933043 20.66611943 92.51267712 24.70605469 92.52709961 C28.87365917 92.54373028 33.0404702 92.58849331 37.20777512 92.63947105 C40.41632973 92.67317508 43.62469694 92.68468049 46.83341217 92.69032669 C48.36919454 92.69703264 49.90496486 92.7122379 51.44057465 92.7362175 C53.59514885 92.76793755 55.74759613 92.76789709 57.90234375 92.76049805 C59.12653015 92.7685849 60.35071655 92.77667175 61.61199951 92.78500366 C66.11029046 91.97236469 67.74901361 90.36638442 70.97753906 87.17700195 C72.4115462 84.30898768 72.13664659 81.82499321 72.17041016 78.61938477 C72.17858765 77.94598053 72.18676514 77.27257629 72.19519043 76.57876587 C72.22004066 74.34589527 72.23656109 72.11308831 72.25097656 69.88012695 C72.25896208 68.73569248 72.25896208 68.73569248 72.26710892 67.56813812 C72.29384141 63.52826441 72.31321423 59.48842158 72.32763672 55.44848633 C72.34426739 51.28088185 72.38903042 47.11407082 72.44000816 42.9467659 C72.47371219 39.73821128 72.4852176 36.52984407 72.4908638 33.32112885 C72.49756975 31.78534648 72.51277501 30.24957616 72.53675461 28.71396637 C72.56847466 26.55939217 72.5684342 24.40694488 72.56103516 22.25219727 C72.56912201 21.02801086 72.57720886 19.80382446 72.58554077 18.5425415 C71.7729018 14.04425055 70.16692153 12.4055274 66.97753906 9.17700195 C64.10952479 7.74299482 61.62553032 8.01789442 58.41992188 7.98413086 C57.74651764 7.97595337 57.0731134 7.96777588 56.37930298 7.95935059 C54.14643238 7.93450036 51.91362542 7.91797993 49.68066406 7.90356445 C48.91770775 7.89824078 48.15475143 7.8929171 47.36867523 7.8874321 C43.32880152 7.8606996 39.28895869 7.84132679 35.24902344 7.8269043 C31.08141896 7.81027363 26.91460793 7.7655106 22.74730301 7.71453285 C19.53874839 7.68082883 16.33038118 7.66932341 13.12166595 7.66367722 C11.58588359 7.65697126 10.05011327 7.64176601 8.51450348 7.61778641 C6.35992928 7.58606635 4.20748199 7.58610682 2.05273438 7.59350586 C0.82854797 7.58541901 -0.39563843 7.57733215 -1.65692139 7.56900024 C-6.15521234 8.38163921 -7.79393549 9.98761949 -11.02246094 13.17700195 Z " fill="#FFFFFF" transform="translate(20.0224609375,-0.177001953125)"/>
<path d="M0 0 C1.51815699 0.00015911 3.0363194 0.00585313 4.55444336 0.01586914 C5.35208603 0.01728409 6.1497287 0.01869904 6.97154236 0.02015686 C9.52916146 0.02577223 12.08669429 0.03832727 14.64428711 0.05102539 C16.37410356 0.05603841 18.10392137 0.06060166 19.83374023 0.06469727 C24.08312264 0.07574664 28.33244023 0.09302153 32.58178711 0.11352539 C34.42492627 5.84841329 33.20944791 12.02427748 32.76928711 17.92602539 C32.68614258 19.18479492 32.60299805 20.44356445 32.51733398 21.74047852 C31.39350586 37.30180664 31.39350586 37.30180664 28.58178711 40.11352539 C23.94163386 40.36768089 19.29057405 40.29875337 14.64428711 40.30102539 C13.33008789 40.31327148 12.01588867 40.32551758 10.66186523 40.33813477 C9.40954102 40.34006836 8.1572168 40.34200195 6.86694336 40.34399414 C5.13263062 40.35015747 5.13263062 40.35015747 3.36328125 40.35644531 C0.58178711 40.11352539 0.58178711 40.11352539 -1.41821289 38.11352539 C-1.81298828 36.10498047 -1.81298828 36.10498047 -2.01586914 33.63305664 C-2.09474365 32.72257568 -2.17361816 31.81209473 -2.25488281 30.87402344 C-2.32940674 29.90118408 -2.40393066 28.92834473 -2.48071289 27.92602539 C-2.56232666 26.93965088 -2.64394043 25.95327637 -2.72802734 24.93701172 C-2.96778906 21.99652427 -3.19411105 19.05524231 -3.41821289 16.11352539 C-3.54576021 14.52758332 -3.67335885 12.94164537 -3.80102539 11.35571289 C-4.36230696 3.98192988 -4.36230696 3.98192988 -4.41821289 1.11352539 C-3.41821289 0.11352539 -3.41821289 0.11352539 0 0 Z M3.58178711 5.11352539 C3.46415661 15.17746786 3.70377533 25.07910506 4.58178711 35.11352539 C5.57178711 34.78352539 6.56178711 34.45352539 7.58178711 34.11352539 C7.34577105 30.14337094 7.09731811 26.17421397 6.8371582 22.20556641 C6.75037311 20.85454673 6.66702898 19.50330154 6.5871582 18.15185547 C6.47196337 16.21274246 6.34348587 14.27443277 6.21459961 12.33618164 C6.14128418 11.16837158 6.06796875 10.00056152 5.99243164 8.79736328 C5.7891626 7.46886353 5.7891626 7.46886353 5.58178711 6.11352539 C4.92178711 5.78352539 4.26178711 5.45352539 3.58178711 5.11352539 Z M13.58178711 5.11352539 C13.58178711 15.01352539 13.58178711 24.91352539 13.58178711 35.11352539 C14.24178711 35.11352539 14.90178711 35.11352539 15.58178711 35.11352539 C15.58178711 25.21352539 15.58178711 15.31352539 15.58178711 5.11352539 C14.92178711 5.11352539 14.26178711 5.11352539 13.58178711 5.11352539 Z M24.58178711 5.11352539 C24.25178711 5.77352539 23.92178711 6.43352539 23.58178711 7.11352539 C24.24178711 7.11352539 24.90178711 7.11352539 25.58178711 7.11352539 C25.25178711 6.45352539 24.92178711 5.79352539 24.58178711 5.11352539 Z M23.58178711 8.11352539 C22.51182538 17.13177426 22.47944052 26.05016663 22.58178711 35.11352539 C23.24178711 35.11352539 23.90178711 35.11352539 24.58178711 35.11352539 C25.42109305 26.09098653 25.70403337 17.17333129 25.58178711 8.11352539 C24.92178711 8.11352539 24.26178711 8.11352539 23.58178711 8.11352539 Z " fill="#FFFFFF" transform="translate(35.418212890625,38.886474609375)"/>
<path d="M0 0 C0.87648193 -0.00287018 1.75296387 -0.00574036 2.65600586 -0.00869751 C4.50863288 -0.01073848 6.36128142 -0.00520628 8.21386719 0.00732422 C11.05192179 0.02337766 13.88855227 0.00747695 16.7265625 -0.01171875 C18.52604481 -0.00973632 20.32552624 -0.00589266 22.125 0 C22.97505615 -0.00607269 23.8251123 -0.01214539 24.70092773 -0.0184021 C30.62181737 0.05238983 30.62181737 0.05238983 32.79467773 1.75863647 C34.54712973 4.02525748 34.35611503 5.6090947 34.0625 8.3984375 C32.51748549 9.94345201 31.0758978 9.52562881 28.92578125 9.52783203 C27.60936646 9.53256027 27.60936646 9.53256027 26.26635742 9.53738403 C25.31220947 9.5353598 24.35806152 9.53333557 23.375 9.53125 C21.91574097 9.53268509 21.91574097 9.53268509 20.42700195 9.53414917 C18.365722 9.53483108 16.30443992 9.53297603 14.24316406 9.52880859 C11.07612312 9.5234605 7.909224 9.52875322 4.7421875 9.53515625 C2.74479135 9.53449547 0.74739529 9.53321431 -1.25 9.53125 C-2.20414795 9.53327423 -3.1582959 9.53529846 -4.14135742 9.53738403 C-5.01896729 9.53423187 -5.89657715 9.53107971 -6.80078125 9.52783203 C-7.57719971 9.52703644 -8.35361816 9.52624084 -9.15356445 9.52542114 C-10.9375 9.3984375 -10.9375 9.3984375 -11.9375 8.3984375 C-12.40074607 3.99759986 -12.40074607 3.99759986 -10.66967773 1.75863647 C-7.61676388 -0.63867543 -3.72703351 -0.02662545 0 0 Z " fill="#FFFFFF" transform="translate(38.9375,27.6015625)"/>
<path d="M0 0 C1.8871875 0.00773437 1.8871875 0.00773437 3.8125 0.015625 C5.070625 0.01046875 6.32875 0.0053125 7.625 0 C10.8125 0.265625 10.8125 0.265625 12.8125 2.265625 C12.4375 4.890625 12.4375 4.890625 11.8125 7.265625 C11.3175 7.100625 10.8225 6.935625 10.3125 6.765625 C5.55590765 5.81430653 0.45281687 5.71885271 -4.1875 7.265625 C-4.8125 4.890625 -4.8125 4.890625 -5.1875 2.265625 C-3.1875 0.265625 -3.1875 0.265625 0 0 Z " fill="#FFFFFF" transform="translate(46.1875,19.734375)"/>
</svg>
