<?xml version="1.0" encoding="UTF-8"?>
<svg version="1.1" xmlns="http://www.w3.org/2000/svg" width="100" height="100">
<path d="M0 0 C0.71095825 -0.0065712 1.4219165 -0.0131424 2.15441895 -0.01991272 C4.50691844 -0.03961985 6.85935413 -0.0513033 9.21191406 -0.0612793 C10.0168354 -0.06535482 10.82175674 -0.06943035 11.65106964 -0.07362938 C15.91255943 -0.0944804 20.17401713 -0.10878556 24.43554688 -0.11816406 C28.82821039 -0.12921874 33.22036599 -0.16361017 37.61285019 -0.20333576 C40.99815791 -0.22953363 44.38334526 -0.23785875 47.76874542 -0.24144554 C49.38740718 -0.24630434 51.00606381 -0.25789821 52.62462616 -0.27648354 C54.89598846 -0.30094088 57.16604521 -0.29989858 59.4375 -0.29296875 C60.72750916 -0.29883499 62.01751831 -0.30470123 63.34661865 -0.31074524 C68.76449401 0.41704639 73.43541562 2.82080785 76.85253906 7.23950195 C80.06778205 11.68410255 80.11342989 14.82545033 80.15454102 20.19946289 C80.16111221 20.91042114 80.16768341 21.62137939 80.17445374 22.35388184 C80.19416087 24.70638133 80.20584432 27.05881702 80.21582031 29.41137695 C80.21989584 30.21629829 80.22397137 31.02121964 80.22817039 31.85053253 C80.24902141 36.11202232 80.26332657 40.37348002 80.27270508 44.63500977 C80.28375976 49.02767328 80.31815118 53.41982888 80.35787678 57.81231308 C80.38407465 61.1976208 80.39239977 64.58280815 80.39598656 67.96820831 C80.40084536 69.58687007 80.41243923 71.2055267 80.43102455 72.82408905 C80.45548189 75.09545135 80.4544396 77.3655081 80.44750977 79.63696289 C80.45337601 80.92697205 80.45924225 82.2169812 80.46528625 83.54608154 C79.73749462 88.9639569 77.33373317 93.63487851 72.91503906 97.05200195 C68.47043847 100.26724494 65.32909068 100.31289278 59.95507812 100.35400391 C58.88864075 100.3638607 58.88864075 100.3638607 57.80065918 100.37391663 C55.44815969 100.39362376 53.095724 100.40530721 50.74316406 100.4152832 C49.93824272 100.41935873 49.13332138 100.42343426 48.30400848 100.42763329 C44.04251869 100.4484843 39.781061 100.46278946 35.51953125 100.47216797 C31.12686773 100.48322265 26.73471214 100.51761407 22.34222794 100.55733967 C18.95692021 100.58353754 15.57173287 100.59186266 12.1863327 100.59544945 C10.56767095 100.60030825 8.94901431 100.61190212 7.33045197 100.63048744 C5.05908967 100.65494478 2.78903292 100.65390249 0.51757812 100.64697266 C-0.77243103 100.6528389 -2.06244019 100.65870514 -3.39154053 100.66474915 C-8.80941589 99.93695751 -13.4803375 97.53319606 -16.89746094 93.11450195 C-20.11270392 88.66990136 -20.15835177 85.52855357 -20.19946289 80.15454102 C-20.20603409 79.44358276 -20.21260529 78.73262451 -20.21937561 78.00012207 C-20.23908274 75.64762258 -20.25076619 73.29518689 -20.26074219 70.94262695 C-20.26481771 70.13770561 -20.26889324 69.33278427 -20.27309227 68.50347137 C-20.29394329 64.24198158 -20.30824845 59.98052389 -20.31762695 55.71899414 C-20.32868163 51.32633062 -20.36307306 46.93417503 -20.40279865 42.54169083 C-20.42899652 39.15638311 -20.43732164 35.77119576 -20.44090843 32.38579559 C-20.44576723 30.76713384 -20.4573611 29.1484772 -20.47594643 27.52991486 C-20.50040377 25.25855256 -20.49936147 22.98849581 -20.49243164 20.71704102 C-20.49829788 19.42703186 -20.50416412 18.13702271 -20.51020813 16.80792236 C-19.7824165 11.390047 -17.37865504 6.7191254 -12.95996094 3.30200195 C-8.51536034 0.08675897 -5.37401256 0.04111112 0 0 Z M-11.02246094 13.17700195 C-12.45646807 16.04501622 -12.18156847 18.52901069 -12.21533203 21.73461914 C-12.22350952 22.40802338 -12.23168701 23.08142761 -12.2401123 23.77523804 C-12.26496253 26.00810864 -12.28148296 28.24091559 -12.29589844 30.47387695 C-12.30122211 31.23683327 -12.30654579 31.99978958 -12.31203079 32.78586578 C-12.33876329 36.8257395 -12.3581361 40.86558233 -12.37255859 44.90551758 C-12.38918926 49.07312206 -12.43395229 53.23993309 -12.48493004 57.40723801 C-12.51863407 60.61579262 -12.53013948 63.82415983 -12.53578568 67.03287506 C-12.54249163 68.56865743 -12.55769688 70.10442775 -12.58167648 71.64003754 C-12.61339654 73.79461174 -12.61335607 75.94705902 -12.60595703 78.10180664 C-12.61404388 79.32599304 -12.62213074 80.55017944 -12.63046265 81.8114624 C-11.81782368 86.30975335 -10.2118434 87.9484765 -7.02246094 91.17700195 C-4.15444667 92.61100909 -1.6704522 92.33610948 1.53515625 92.36987305 C2.20856049 92.37805054 2.88196472 92.38622803 3.57577515 92.39465332 C5.80864575 92.41950355 8.0414527 92.43602398 10.27441406 92.45043945 C11.03737038 92.45576313 11.80032669 92.46108681 12.58640289 92.46657181 C16.62627661 92.4933043 20.66611943 92.51267712 24.70605469 92.52709961 C28.87365917 92.54373028 33.0404702 92.58849331 37.20777512 92.63947105 C40.41632973 92.67317508 43.62469694 92.68468049 46.83341217 92.69032669 C48.36919454 92.69703264 49.90496486 92.7122379 51.44057465 92.7362175 C53.59514885 92.76793755 55.74759613 92.76789709 57.90234375 92.76049805 C59.12653015 92.7685849 60.35071655 92.77667175 61.61199951 92.78500366 C66.11029046 91.97236469 67.74901361 90.36638442 70.97753906 87.17700195 C72.4115462 84.30898768 72.13664659 81.82499321 72.17041016 78.61938477 C72.17858765 77.94598053 72.18676514 77.27257629 72.19519043 76.57876587 C72.22004066 74.34589527 72.23656109 72.11308831 72.25097656 69.88012695 C72.25896208 68.73569248 72.25896208 68.73569248 72.26710892 67.56813812 C72.29384141 63.52826441 72.31321423 59.48842158 72.32763672 55.44848633 C72.34426739 51.28088185 72.38903042 47.11407082 72.44000816 42.9467659 C72.47371219 39.73821128 72.4852176 36.52984407 72.4908638 33.32112885 C72.49756975 31.78534648 72.51277501 30.24957616 72.53675461 28.71396637 C72.56847466 26.55939217 72.5684342 24.40694488 72.56103516 22.25219727 C72.56912201 21.02801086 72.57720886 19.80382446 72.58554077 18.5425415 C71.7729018 14.04425055 70.16692153 12.4055274 66.97753906 9.17700195 C64.10952479 7.74299482 61.62553032 8.01789442 58.41992188 7.98413086 C57.74651764 7.97595337 57.0731134 7.96777588 56.37930298 7.95935059 C54.14643238 7.93450036 51.91362542 7.91797993 49.68066406 7.90356445 C48.91770775 7.89824078 48.15475143 7.8929171 47.36867523 7.8874321 C43.32880152 7.8606996 39.28895869 7.84132679 35.24902344 7.8269043 C31.08141896 7.81027363 26.91460793 7.7655106 22.74730301 7.71453285 C19.53874839 7.68082883 16.33038118 7.66932341 13.12166595 7.66367722 C11.58588359 7.65697126 10.05011327 7.64176601 8.51450348 7.61778641 C6.35992928 7.58606635 4.20748199 7.58610682 2.05273438 7.59350586 C0.82854797 7.58541901 -0.39563843 7.57733215 -1.65692139 7.56900024 C-6.15521234 8.38163921 -7.79393549 9.98761949 -11.02246094 13.17700195 Z " fill="#FFFFFF" transform="translate(20.0224609375,-0.177001953125)"/>
<path d="M0 0 C0.5472876 0.25894043 1.0945752 0.51788086 1.65844727 0.78466797 C1.65844727 4.78466797 1.65844727 4.78466797 -0.31347656 7.08374023 C-1.21606201 7.91446045 -2.11864746 8.74518066 -3.04858398 9.60107422 C-4.03808848 10.53992463 -5.02700136 11.47939891 -6.01538086 12.41943359 C-7.57452384 13.88004791 -9.13911005 15.33350535 -10.71582031 16.77514648 C-17.55603834 23.06511419 -22.09389216 28.27487626 -23.34155273 37.78466797 C-14.24046608 35.81217748 -14.24046608 35.81217748 -7.34155273 29.78466797 C-6.59905273 29.08341797 -5.85655273 28.38216797 -5.09155273 27.65966797 C-3.11711551 25.80489622 -3.11711551 25.80489622 -2.34155273 22.78466797 C-0.68307096 21.77115133 0.98510688 20.77346002 2.65844727 19.78466797 C4.36255267 18.15630059 6.03870168 16.49697045 7.65844727 14.78466797 C3.78077616 15.33885498 2.07376094 17.04117204 -0.59936523 19.81982422 C-1.7846582 21.0331543 -1.7846582 21.0331543 -2.99389648 22.27099609 C-3.80987305 23.12113281 -4.62584961 23.97126953 -5.46655273 24.84716797 C-7.08962782 26.52993361 -8.71701011 28.2085591 -10.34936523 29.88232422 C-11.06753418 30.63006104 -11.78570312 31.37779785 -12.52563477 32.14819336 C-14.34155273 33.78466797 -14.34155273 33.78466797 -16.34155273 33.78466797 C-16.34155273 32.79466797 -16.34155273 31.80466797 -16.34155273 30.78466797 C-17.66155273 30.78466797 -18.98155273 30.78466797 -20.34155273 30.78466797 C-18.75681694 26.9213817 -16.28198386 24.49589874 -13.33374023 21.58154297 C-12.84825714 21.09888977 -12.36277405 20.61623657 -11.86257935 20.11895752 C-10.31855407 18.58608235 -8.76770449 17.06032793 -7.21655273 15.53466797 C-6.16531265 14.49346436 -5.11452616 13.45180256 -4.06420898 12.40966797 C-1.4952227 9.86267333 1.07992888 7.3220162 3.65844727 4.78466797 C7.02593238 6.30414296 8.26685063 7.30567639 9.65844727 10.78466797 C8.99844727 11.11466797 8.33844727 11.44466797 7.65844727 11.78466797 C8.42157227 11.72279297 9.18469727 11.66091797 9.97094727 11.59716797 C12.65844727 11.78466797 12.65844727 11.78466797 14.47094727 13.15966797 C15.65844727 14.78466797 15.65844727 14.78466797 15.65844727 16.78466797 C14.17871094 18.22558594 14.17871094 18.22558594 12.13891602 19.90185547 C9.19338245 22.40254807 6.46282615 24.96041828 3.83422852 27.79248047 C-6.45023777 38.81390147 -14.7698168 44.99288479 -30.34155273 45.78466797 C-32.18208088 39.05322589 -30.7421313 32.76083476 -27.9675293 26.51367188 C-24.36482498 20.46697085 -19.25132512 15.58804513 -14.27905273 10.65966797 C-13.73105011 10.11104095 -13.18304749 9.56241394 -12.61843872 8.99716187 C-3.24257343 -0.29819099 -3.24257343 -0.29819099 0 0 Z " fill="#FFFFFF" transform="translate(52.341552734375,33.21533203125)"/>
<path d="M0 0 C4.20735993 0.54255493 5.63913235 2.03916177 8.5859375 5.0390625 C9.89691406 6.32683594 9.89691406 6.32683594 11.234375 7.640625 C13.55692237 10.89953535 13.73355032 12.49721696 13.2109375 16.4140625 C11.8984375 18.2890625 11.8984375 18.2890625 10.2109375 19.4140625 C7.2109375 19.4140625 7.2109375 19.4140625 4.7734375 17.2265625 C2.2109375 14.4140625 2.2109375 14.4140625 0.1484375 11.7890625 C-1.67512849 9.55372355 -3.41401603 8.02570117 -5.7890625 6.4140625 C-4.9958705 2.44810252 -4.29686267 0.63790958 0 0 Z " fill="#FFFFFF" transform="translate(65.7890625,20.5859375)"/>
<path d="M0 0 C4.90622103 0.69296907 7.45805072 3.94341845 10.8125 7.3125 C11.42287109 7.89451172 12.03324219 8.47652344 12.66210938 9.07617188 C13.23380859 9.64529297 13.80550781 10.21441406 14.39453125 10.80078125 C14.91893799 11.31809814 15.44334473 11.83541504 15.98364258 12.3684082 C17 14 17 14 16.6628418 16.19995117 C16.444104 16.79396729 16.22536621 17.3879834 16 18 C14.21801758 18.67651367 14.21801758 18.67651367 12 19 C10.24487305 17.8918457 10.24487305 17.8918457 8.51171875 16.17578125 C7.88845703 15.55896484 7.26519531 14.94214844 6.62304688 14.30664062 C5.98431641 13.64857422 5.34558594 12.99050781 4.6875 12.3125 C4.02943359 11.67376953 3.37136719 11.03503906 2.69335938 10.37695312 C2.07654297 9.75369141 1.45972656 9.13042969 0.82421875 8.48828125 C0.25791748 7.91634033 -0.30838379 7.34439941 -0.8918457 6.75512695 C-2 5 -2 5 -1.73901367 2.84448242 C-1 1 -1 1 0 0 Z " fill="#FFFFFF" transform="translate(56,27)"/>
</svg>
