<?xml version="1.0" encoding="UTF-8"?>
<svg version="1.1" xmlns="http://www.w3.org/2000/svg" width="100" height="100">
<path d="M0 0 C0.71095825 -0.0065712 1.4219165 -0.0131424 2.15441895 -0.01991272 C4.50691844 -0.03961985 6.85935413 -0.0513033 9.21191406 -0.0612793 C10.0168354 -0.06535482 10.82175674 -0.06943035 11.65106964 -0.07362938 C15.91255943 -0.0944804 20.17401713 -0.10878556 24.43554688 -0.11816406 C28.82821039 -0.12921874 33.22036599 -0.16361017 37.61285019 -0.20333576 C40.99815791 -0.22953363 44.38334526 -0.23785875 47.76874542 -0.24144554 C49.38740718 -0.24630434 51.00606381 -0.25789821 52.62462616 -0.27648354 C54.89598846 -0.30094088 57.16604521 -0.29989858 59.4375 -0.29296875 C60.72750916 -0.29883499 62.01751831 -0.30470123 63.34661865 -0.31074524 C68.76449401 0.41704639 73.43541562 2.82080785 76.85253906 7.23950195 C80.06778205 11.68410255 80.11342989 14.82545033 80.15454102 20.19946289 C80.16111221 20.91042114 80.16768341 21.62137939 80.17445374 22.35388184 C80.19416087 24.70638133 80.20584432 27.05881702 80.21582031 29.41137695 C80.21989584 30.21629829 80.22397137 31.02121964 80.22817039 31.85053253 C80.24902141 36.11202232 80.26332657 40.37348002 80.27270508 44.63500977 C80.28375976 49.02767328 80.31815118 53.41982888 80.35787678 57.81231308 C80.38407465 61.1976208 80.39239977 64.58280815 80.39598656 67.96820831 C80.40084536 69.58687007 80.41243923 71.2055267 80.43102455 72.82408905 C80.45548189 75.09545135 80.4544396 77.3655081 80.44750977 79.63696289 C80.45337601 80.92697205 80.45924225 82.2169812 80.46528625 83.54608154 C79.73749462 88.9639569 77.33373317 93.63487851 72.91503906 97.05200195 C68.47043847 100.26724494 65.32909068 100.31289278 59.95507812 100.35400391 C58.88864075 100.3638607 58.88864075 100.3638607 57.80065918 100.37391663 C55.44815969 100.39362376 53.095724 100.40530721 50.74316406 100.4152832 C49.93824272 100.41935873 49.13332138 100.42343426 48.30400848 100.42763329 C44.04251869 100.4484843 39.781061 100.46278946 35.51953125 100.47216797 C31.12686773 100.48322265 26.73471214 100.51761407 22.34222794 100.55733967 C18.95692021 100.58353754 15.57173287 100.59186266 12.1863327 100.59544945 C10.56767095 100.60030825 8.94901431 100.61190212 7.33045197 100.63048744 C5.05908967 100.65494478 2.78903292 100.65390249 0.51757812 100.64697266 C-0.77243103 100.6528389 -2.06244019 100.65870514 -3.39154053 100.66474915 C-8.80941589 99.93695751 -13.4803375 97.53319606 -16.89746094 93.11450195 C-20.11270392 88.66990136 -20.15835177 85.52855357 -20.19946289 80.15454102 C-20.20603409 79.44358276 -20.21260529 78.73262451 -20.21937561 78.00012207 C-20.23908274 75.64762258 -20.25076619 73.29518689 -20.26074219 70.94262695 C-20.26481771 70.13770561 -20.26889324 69.33278427 -20.27309227 68.50347137 C-20.29394329 64.24198158 -20.30824845 59.98052389 -20.31762695 55.71899414 C-20.32868163 51.32633062 -20.36307306 46.93417503 -20.40279865 42.54169083 C-20.42899652 39.15638311 -20.43732164 35.77119576 -20.44090843 32.38579559 C-20.44576723 30.76713384 -20.4573611 29.1484772 -20.47594643 27.52991486 C-20.50040377 25.25855256 -20.49936147 22.98849581 -20.49243164 20.71704102 C-20.49829788 19.42703186 -20.50416412 18.13702271 -20.51020813 16.80792236 C-19.7824165 11.390047 -17.37865504 6.7191254 -12.95996094 3.30200195 C-8.51536034 0.08675897 -5.37401256 0.04111112 0 0 Z M-11.02246094 13.17700195 C-12.45646807 16.04501622 -12.18156847 18.52901069 -12.21533203 21.73461914 C-12.22350952 22.40802338 -12.23168701 23.08142761 -12.2401123 23.77523804 C-12.26496253 26.00810864 -12.28148296 28.24091559 -12.29589844 30.47387695 C-12.30122211 31.23683327 -12.30654579 31.99978958 -12.31203079 32.78586578 C-12.33876329 36.8257395 -12.3581361 40.86558233 -12.37255859 44.90551758 C-12.38918926 49.07312206 -12.43395229 53.23993309 -12.48493004 57.40723801 C-12.51863407 60.61579262 -12.53013948 63.82415983 -12.53578568 67.03287506 C-12.54249163 68.56865743 -12.55769688 70.10442775 -12.58167648 71.64003754 C-12.61339654 73.79461174 -12.61335607 75.94705902 -12.60595703 78.10180664 C-12.61404388 79.32599304 -12.62213074 80.55017944 -12.63046265 81.8114624 C-11.81782368 86.30975335 -10.2118434 87.9484765 -7.02246094 91.17700195 C-4.15444667 92.61100909 -1.6704522 92.33610948 1.53515625 92.36987305 C2.20856049 92.37805054 2.88196472 92.38622803 3.57577515 92.39465332 C5.80864575 92.41950355 8.0414527 92.43602398 10.27441406 92.45043945 C11.03737038 92.45576313 11.80032669 92.46108681 12.58640289 92.46657181 C16.62627661 92.4933043 20.66611943 92.51267712 24.70605469 92.52709961 C28.87365917 92.54373028 33.0404702 92.58849331 37.20777512 92.63947105 C40.41632973 92.67317508 43.62469694 92.68468049 46.83341217 92.69032669 C48.36919454 92.69703264 49.90496486 92.7122379 51.44057465 92.7362175 C53.59514885 92.76793755 55.74759613 92.76789709 57.90234375 92.76049805 C59.12653015 92.7685849 60.35071655 92.77667175 61.61199951 92.78500366 C66.11029046 91.97236469 67.74901361 90.36638442 70.97753906 87.17700195 C72.4115462 84.30898768 72.13664659 81.82499321 72.17041016 78.61938477 C72.17858765 77.94598053 72.18676514 77.27257629 72.19519043 76.57876587 C72.22004066 74.34589527 72.23656109 72.11308831 72.25097656 69.88012695 C72.25896208 68.73569248 72.25896208 68.73569248 72.26710892 67.56813812 C72.29384141 63.52826441 72.31321423 59.48842158 72.32763672 55.44848633 C72.34426739 51.28088185 72.38903042 47.11407082 72.44000816 42.9467659 C72.47371219 39.73821128 72.4852176 36.52984407 72.4908638 33.32112885 C72.49756975 31.78534648 72.51277501 30.24957616 72.53675461 28.71396637 C72.56847466 26.55939217 72.5684342 24.40694488 72.56103516 22.25219727 C72.56912201 21.02801086 72.57720886 19.80382446 72.58554077 18.5425415 C71.7729018 14.04425055 70.16692153 12.4055274 66.97753906 9.17700195 C64.10952479 7.74299482 61.62553032 8.01789442 58.41992188 7.98413086 C57.74651764 7.97595337 57.0731134 7.96777588 56.37930298 7.95935059 C54.14643238 7.93450036 51.91362542 7.91797993 49.68066406 7.90356445 C48.91770775 7.89824078 48.15475143 7.8929171 47.36867523 7.8874321 C43.32880152 7.8606996 39.28895869 7.84132679 35.24902344 7.8269043 C31.08141896 7.81027363 26.91460793 7.7655106 22.74730301 7.71453285 C19.53874839 7.68082883 16.33038118 7.66932341 13.12166595 7.66367722 C11.58588359 7.65697126 10.05011327 7.64176601 8.51450348 7.61778641 C6.35992928 7.58606635 4.20748199 7.58610682 2.05273438 7.59350586 C0.82854797 7.58541901 -0.39563843 7.57733215 -1.65692139 7.56900024 C-6.15521234 8.38163921 -7.79393549 9.98761949 -11.02246094 13.17700195 Z " fill="#FFFFFF" transform="translate(20.0224609375,-0.177001953125)"/>
<path d="M0 0 C2.1875 0.3125 2.1875 0.3125 4 1 C3.58685438 5.44926052 0.49538473 7.84100104 -2.5625 10.75 C-3.08263672 11.25660156 -3.60277344 11.76320313 -4.13867188 12.28515625 C-5.41910084 13.53034405 -6.70867554 14.76611502 -8 16 C-7.01 16 -6.02 16 -5 16 C-4.34 14.68 -3.68 13.36 -3 12 C-1.68 12.66 -0.36 13.32 1 14 C1.125 17.375 1.125 17.375 1 21 C-1 23 -1 23 -4.625 23.23046875 C-6.0833982 23.22647678 -7.54179743 23.2117184 -9 23.1875 C-9.73734375 23.18685547 -10.4746875 23.18621094 -11.234375 23.18554688 C-16.71898191 23.14050904 -16.71898191 23.14050904 -19 22 C-19.31241455 19.28553021 -19.51336592 16.66090639 -19.625 13.9375 C-19.66367187 13.17888672 -19.70234375 12.42027344 -19.7421875 11.63867188 C-19.83673562 9.75952805 -19.91946756 7.87979664 -20 6 C-16 6 -16 6 -13.875 8 C-13.25625 8.66 -12.6375 9.32 -12 10 C-11.34 10 -10.68 10 -10 10 C-10.99 9.34 -11.98 8.68 -13 8 C-13 6.68 -13 5.36 -13 4 C-11 3 -11 3 -7.0625 3.125 C-3.82119576 3.27810177 -3.82119576 3.27810177 -1.25 1.4375 C-0.8375 0.963125 -0.425 0.48875 0 0 Z " fill="#FFFFFF" transform="translate(33,24)"/>
<path d="M0 0 C0.804375 -0.00128906 1.60875 -0.00257812 2.4375 -0.00390625 C3.283125 -0.00003906 4.12875 0.00382812 5 0.0078125 C6.2684375 0.00201172 6.2684375 0.00201172 7.5625 -0.00390625 C8.366875 -0.00261719 9.17125 -0.00132813 10 0 C10.7425 0.00112793 11.485 0.00225586 12.25 0.00341797 C14 0.1328125 14 0.1328125 15 1.1328125 C15.10002455 3.78934693 15.13877463 6.41410522 15.125 9.0703125 C15.13080078 10.1830957 15.13080078 10.1830957 15.13671875 11.31835938 C15.12663501 16.87954248 15.12663501 16.87954248 14 19.1328125 C11.02077407 19.15965237 8.04178705 19.17957287 5.0625 19.1953125 C3.78729492 19.20788086 3.78729492 19.20788086 2.48632812 19.22070312 C1.67744141 19.22392578 0.86855469 19.22714844 0.03515625 19.23046875 C-0.7137085 19.23570557 -1.46257324 19.24094238 -2.23413086 19.24633789 C-4 19.1328125 -4 19.1328125 -5 18.1328125 C-5.09986975 15.28946202 -5.13877881 12.47584087 -5.125 9.6328125 C-5.12886719 8.83488281 -5.13273438 8.03695312 -5.13671875 7.21484375 C-5.12448266 0.00778459 -5.12448266 0.00778459 0 0 Z M0 5.1328125 C0 8.1028125 0 11.0728125 0 14.1328125 C3.3 14.1328125 6.6 14.1328125 10 14.1328125 C10 11.1628125 10 8.1928125 10 5.1328125 C6.7 5.1328125 3.4 5.1328125 0 5.1328125 Z " fill="#FFFFFF" transform="translate(19,55.8671875)"/>
<path d="M0 0 C0.88026855 -0.0033284 1.76053711 -0.0066568 2.66748047 -0.01008606 C4.53026811 -0.01515292 6.39306485 -0.01749446 8.25585938 -0.01733398 C11.11343226 -0.01952239 13.97062037 -0.03768578 16.828125 -0.05664062 C18.63541534 -0.05957415 20.44270752 -0.06155922 22.25 -0.0625 C23.53753174 -0.07327827 23.53753174 -0.07327827 24.85107422 -0.08427429 C30.89617421 -0.06085704 30.89617421 -0.06085704 33.125 2.16796875 C33.125 3.15796875 33.125 4.14796875 33.125 5.16796875 C29.68895235 6.88599257 25.74061104 6.28763055 21.9609375 6.265625 C21.05372955 6.26421005 20.14652161 6.2627951 19.21182251 6.26133728 C16.30784845 6.25572971 13.40395085 6.24317593 10.5 6.23046875 C8.53385528 6.22545473 6.56770935 6.22089165 4.6015625 6.21679688 C-0.2239879 6.20575781 -5.04948097 6.1884881 -9.875 6.16796875 C-10.205 4.51796875 -10.535 2.86796875 -10.875 1.16796875 C-7.50860724 -0.51522763 -3.70259311 0.00480027 0 0 Z " fill="#FFFFFF" transform="translate(48.875,40.83203125)"/>
<path d="M0 0 C15.84 0 31.68 0 48 0 C48.495 1.98 48.495 1.98 49 4 C48 5 48 5 46.09544373 5.12025452 C45.26271439 5.11803391 44.42998505 5.11581329 43.57202148 5.11352539 C42.63112167 5.11344986 41.69022186 5.11337433 40.72080994 5.11329651 C39.69790359 5.10813522 38.67499725 5.10297394 37.62109375 5.09765625 C36.57929459 5.0962413 35.53749542 5.09482635 34.46412659 5.09336853 C31.12188906 5.0877508 27.77971743 5.0751953 24.4375 5.0625 C22.17773534 5.05748728 19.91796963 5.05292398 17.65820312 5.04882812 C12.10544609 5.03777561 6.55272775 5.02102024 1 5 C0.67 3.35 0.34 1.7 0 0 Z " fill="#FFFFFF" transform="translate(38,63)"/>
<path d="M0 0 C16.17 0 32.34 0 49 0 C49 1.32 49 2.64 49 4 C46.62609164 5.18695418 45.19755049 5.12075833 42.55029297 5.11352539 C41.62948944 5.11344986 40.70868591 5.11337433 39.75997925 5.11329651 C38.26617233 5.10555458 38.26617233 5.10555458 36.7421875 5.09765625 C35.72399933 5.0962413 34.70581116 5.09482635 33.6567688 5.09336853 C30.39614965 5.087759 27.13559849 5.07520488 23.875 5.0625 C21.66796974 5.05748623 19.46093841 5.05292311 17.25390625 5.04882812 C11.83591419 5.03778648 6.41796195 5.02103905 1 5 C0.67 3.35 0.34 1.7 0 0 Z " fill="#FFFFFF" transform="translate(38,35)"/>
<path d="M0 0 C14.19 0 28.38 0 43 0 C43.495 1.98 43.495 1.98 44 4 C43 5 43 5 41.24729919 5.12025452 C40.48562943 5.11803391 39.72395966 5.11581329 38.93920898 5.11352539 C38.07839218 5.11344986 37.21757538 5.11337433 36.33067322 5.11329651 C35.39526199 5.10813522 34.45985077 5.10297394 33.49609375 5.09765625 C32.54307877 5.0962413 31.59006378 5.09482635 30.60816956 5.09336853 C27.55124835 5.08775152 24.49439923 5.07519616 21.4375 5.0625 C19.37044376 5.05748719 17.30338638 5.05292391 15.23632812 5.04882812 C10.15752412 5.03777656 5.0787743 5.02050055 0 5 C0 3.35 0 1.7 0 0 Z " fill="#FFFFFF" transform="translate(38,70)"/>
<path d="M0 0 C11.88 0 23.76 0 36 0 C36 1.32 36 2.64 36 4 C35 5 35 5 31.76538086 5.11352539 C30.33185874 5.11336631 28.89833088 5.10767407 27.46484375 5.09765625 C26.33496788 5.09553383 26.33496788 5.09553383 25.18226624 5.09336853 C22.7673044 5.08775376 20.35243399 5.07519883 17.9375 5.0625 C16.30403779 5.0574869 14.67057414 5.05292366 13.03710938 5.04882812 C9.02470415 5.03777954 5.01236759 5.02050506 1 5 C0.67 3.35 0.34 1.7 0 0 Z " fill="#FFFFFF" transform="translate(38,56)"/>
<path d="M0 0 C11.88 0 23.76 0 36 0 C36 1.32 36 2.64 36 4 C35 5 35 5 31.76538086 5.11352539 C30.33185874 5.11336631 28.89833088 5.10767407 27.46484375 5.09765625 C26.33496788 5.09553383 26.33496788 5.09553383 25.18226624 5.09336853 C22.7673044 5.08775376 20.35243399 5.07519883 17.9375 5.0625 C16.30403779 5.0574869 14.67057414 5.05292366 13.03710938 5.04882812 C9.02470415 5.03777954 5.01236759 5.02050506 1 5 C0.67 3.35 0.34 1.7 0 0 Z " fill="#FFFFFF" transform="translate(38,28)"/>
</svg>
